<?xml version="1.0" standalone="no"?>
<!DOCTYPE svg PUBLIC "-//W3C//DTD SVG 20010904//EN"
 "http://www.w3.org/TR/2001/REC-SVG-20010904/DTD/svg10.dtd">
<svg version="1.0" xmlns="http://www.w3.org/2000/svg"
 width="460.000000pt" height="460.000000pt" viewBox="0 0 460.000000 460.000000"
 preserveAspectRatio="xMidYMid meet">
<metadata>
Created by potrace 1.14, written by Peter Selinger 2001-2017
</metadata>
<g transform="translate(0.000000,460.000000) scale(0.100000,-0.100000)"
fill="#000000" stroke="none">
<path d="M1590 3564 c-80 -15 -162 -42 -213 -71 -33 -18 -62 -33 -67 -33 -4 0
-43 -36 -87 -79 -242 -242 -255 -619 -28 -777 79 -55 256 -80 355 -51 197 58
269 321 129 467 -67 71 -103 85 -209 85 -112 0 -154 -17 -218 -90 -116 -132
-90 -327 56 -426 45 -30 38 -32 -25 -8 -36 14 -113 90 -129 128 -63 151 28
366 186 439 44 20 72 25 135 26 68 1 98 -5 208 -42 131 -43 408 -144 462 -167
17 -8 93 -40 170 -73 77 -33 169 -73 205 -89 126 -58 128 -58 163 -38 17 10
85 59 151 109 67 50 140 104 164 120 23 16 52 38 65 50 13 11 54 46 93 77 38
31 85 71 104 88 19 17 42 36 50 42 8 7 27 24 43 38 15 13 27 22 27 19 0 -5
-324 -304 -511 -472 -99 -89 -213 -192 -239 -216 -14 -14 -66 -62 -116 -106
l-89 -82 -130 -4 c-112 -3 -137 -7 -177 -28 -50 -25 -167 -124 -157 -134 3 -3
21 -1 40 4 18 6 83 10 144 10 l110 0 -41 -37 c-87 -81 -174 -161 -244 -223
-41 -36 -92 -82 -114 -103 -22 -22 -54 -50 -71 -64 -16 -14 -75 -67 -130 -118
-55 -51 -112 -103 -126 -116 -15 -13 -44 -40 -65 -59 -22 -19 -89 -80 -149
-134 -61 -54 -115 -104 -120 -110 -6 -6 -48 -45 -95 -86 -146 -130 -146 -130
-128 -130 9 0 19 4 22 9 9 14 137 97 192 124 175 87 380 76 789 -43 169 -49
434 -114 560 -136 74 -14 150 -19 290 -19 238 0 310 18 445 108 57 37 154 138
185 191 100 170 104 426 10 576 -28 45 -83 93 -138 122 -37 20 -56 23 -172 23
-141 0 -138 1 -229 -69 -57 -44 -90 -122 -90 -211 1 -84 24 -143 78 -198 63
-64 109 -82 206 -82 96 0 139 17 201 79 60 61 84 119 83 206 0 90 -24 143 -90
203 -24 22 -42 42 -40 44 8 8 60 -24 97 -59 55 -52 73 -110 67 -221 -8 -146
-56 -219 -185 -279 -116 -55 -263 -51 -408 12 -11 5 -31 12 -45 15 -14 4 -52
20 -85 35 -33 16 -98 46 -145 68 -85 40 -249 142 -305 191 -16 14 -64 61 -106
103 l-76 78 -69 -49 c-241 -172 -511 -378 -664 -507 -36 -30 -83 -69 -105 -86
l-40 -31 45 44 c25 24 94 89 155 144 60 55 128 116 150 137 22 20 52 47 66 60
14 12 66 59 115 104 49 44 118 107 154 139 85 76 259 236 331 303 l56 52 99 0
c74 0 109 5 139 19 43 19 116 83 133 117 11 20 10 21 -96 16 l-107 -4 70 64
c39 36 151 138 250 228 187 170 226 205 391 356 54 49 144 130 199 179 55 49
111 101 125 115 14 14 56 52 93 84 37 32 65 61 63 64 -3 3 -29 -13 -58 -35
-81 -61 -186 -119 -258 -144 -152 -52 -349 -31 -710 76 -149 44 -125 38 -285
75 -246 59 -329 71 -525 75 -102 2 -196 2 -210 -1z"/>
</g>
</svg>
